<mxfile host="app.diagrams.net" modified="2024-01-01T05:12:33.154Z" agent="Mozilla/5.0 (Macintosh; Intel Mac OS X 10_15_7) AppleWebKit/537.36 (KHTML, like Gecko) Chrome/117.0.0.0 Safari/537.36" version="22.1.16" etag="wULKhhIWigOBcfxzMYEQ" type="github">
  <diagram name="Page-1" id="v1W6G9yQt5CyLuTWBVgW">
    <mxGraphModel>
      <root>
        <mxCell id="0" />
        <mxCell id="1" parent="0" />
      </root>
    </mxGraphModel>
  </diagram>
</mxfile>
